<!--?xml version="1.0" standalone="no"?-->
              <svg id="sw-js-blob-svg" viewBox="0 0 100 100" xmlns="http://www.w3.org/2000/svg" version="1.1">
                    <defs> 
                        <linearGradient id="sw-gradient" x1="0" x2="1" y1="1" y2="0">
                            <stop id="stop1" stop-color="rgba(248, 117, 55, 1)" offset="0%"></stop>
                            <stop id="stop2" stop-color="rgba(251, 168, 31, 1)" offset="100%"></stop>
                        </linearGradient>
                    </defs>
                <path fill="url(#sw-gradient)" d="M20.9,-32.6C27.2,-32.5,32.7,-27.3,34.8,-21C36.8,-14.7,35.4,-7.4,30.9,-2.6C26.5,2.2,18.9,4.4,13.8,5.3C8.7,6.2,5.9,5.9,4,7.6C2.1,9.3,1.1,13,-0.9,14.5C-2.8,15.9,-5.6,15.2,-10.4,15.2C-15.2,15.2,-22,15.9,-26.6,13.5C-31.2,11.1,-33.6,5.5,-33.5,0C-33.5,-5.5,-31,-11,-27.6,-15.4C-24.2,-19.9,-19.8,-23.3,-15,-24.4C-10.3,-25.4,-5.1,-24.2,1.1,-26C7.3,-27.9,14.5,-32.8,20.9,-32.6Z" width="100%" height="100%" transform="translate(50 50)" stroke-width="0" style="transition: all 0.3s ease 0s;"></path>
              </svg>