<svg version="1.1" id="Layer_1" xmlns="http://www.w3.org/2000/svg" xmlns:xlink="http://www.w3.org/1999/xlink" x="0px" y="0px"
	 width="100%" viewBox="0 0 636 268" enable-background="new 0 0 636 268" xml:space="preserve">
<path fill="#000000" opacity="1.000000" stroke="none" 
	d="
M484.000000,269.000000 
	C322.711121,269.000000 161.922226,269.000000 1.066664,269.000000 
	C1.066664,179.735840 1.066664,90.471611 1.066664,1.103692 
	C212.999969,1.103692 424.999969,1.103692 636.978638,1.103692 
	C636.978638,90.411156 636.978638,179.705582 636.978638,269.000000 
	C586.138245,269.000000 535.319092,269.000000 484.000000,269.000000 
M125.554474,201.001968 
	C131.808456,200.001770 138.065033,199.017609 144.315826,197.997772 
	C155.063095,196.244293 165.815125,194.517776 176.549744,192.689484 
	C189.347229,190.509827 202.124695,188.213058 214.917892,186.007980 
	C225.956985,184.105209 237.008713,182.275665 248.049881,180.384796 
	C260.373474,178.274307 272.676178,176.037308 285.016296,174.029678 
	C296.423218,172.173889 307.880737,170.630325 319.292145,168.800797 
	C332.917297,166.616348 346.509552,164.227509 360.130310,162.014633 
	C371.205841,160.215286 382.316681,158.631119 393.386139,156.796387 
	C408.596252,154.275345 423.762726,151.487793 438.984009,149.038925 
	C452.649048,146.840454 466.380005,145.053101 480.049866,142.882935 
	C491.442017,141.074387 502.770203,138.864639 514.158630,137.030823 
	C527.487610,134.884521 540.871277,133.075623 554.194824,130.897812 
	C571.641296,128.046143 589.065674,125.053345 606.470398,121.957001 
	C612.128174,120.950470 617.694275,119.428459 623.302307,118.142212 
	C623.265503,117.361099 623.228760,116.579979 623.192017,115.798866 
	C620.809204,115.198494 618.392334,113.972122 616.049194,114.099884 
	C601.420593,114.897552 586.802246,115.915985 572.192932,117.024147 
	C560.737976,117.893051 549.291077,118.896324 537.858337,120.020973 
	C521.892944,121.591507 505.933990,123.239960 489.990967,125.022514 
	C473.104675,126.910530 456.241119,129.001160 439.366211,130.991302 
	C422.330597,133.000366 405.266510,134.793274 388.263916,137.050247 
	C370.027344,139.471024 351.834869,142.236496 333.647125,145.008911 
	C314.505066,147.926819 295.365173,150.875656 276.272064,154.093964 
	C253.695312,157.899490 231.118317,161.741058 208.637177,166.064804 
	C188.640381,169.910751 168.710999,174.162460 148.870544,178.748489 
	C132.850769,182.451385 116.903374,186.563187 101.128120,191.189972 
	C92.528549,193.712158 84.283493,197.522781 76.048119,201.138535 
	C74.436127,201.846298 73.604149,204.330612 71.747475,206.924484 
	C91.052597,208.507996 107.744431,203.763229 125.554474,201.001968 
M152.001511,82.647217 
	C151.394867,79.313354 151.147461,75.864449 150.122665,72.664505 
	C143.936829,53.348885 130.033264,41.486061 111.503479,35.231094 
	C101.942299,32.003593 91.578011,31.224916 81.669098,28.938841 
	C71.112190,26.503267 61.880219,28.799303 53.088306,34.929684 
	C41.967697,42.683804 37.051094,53.379662 40.024769,65.080864 
	C40.971115,68.804672 43.608517,70.846657 47.146091,69.174629 
	C50.790421,67.452133 54.047527,64.795357 57.235790,62.249031 
	C62.452236,58.082878 65.708824,51.594463 73.483215,48.869347 
	C73.483215,53.560966 74.478050,58.112133 73.322319,62.028694 
	C65.622627,88.121483 57.739254,114.167679 49.385601,140.058014 
	C38.237263,174.609879 26.575691,208.995956 15.225130,243.483047 
	C13.806863,247.792252 12.940146,252.282974 11.817874,256.689575 
	C12.325440,256.980957 12.833007,257.272308 13.340573,257.563660 
	C14.564812,256.289551 16.175196,255.214645 16.951670,253.709549 
	C22.728848,242.511093 28.486580,231.297928 33.974529,219.955902 
	C46.137192,194.819077 58.149708,169.609543 70.200958,144.418900 
	C76.944710,130.322479 83.686272,116.224678 90.345970,102.088470 
	C94.155853,94.001450 95.357536,86.050072 91.259384,77.319778 
	C87.317085,68.921501 84.736191,59.884556 81.548630,51.131325 
	C80.525223,48.320992 80.829170,46.189384 84.360771,45.904549 
	C88.762726,45.549519 93.211899,44.795258 97.572289,45.123089 
	C105.648170,45.730259 111.043839,50.057659 113.064751,58.175209 
	C114.581581,64.267982 116.857986,70.252213 117.637169,76.430931 
	C119.157158,88.484009 122.002876,100.905289 112.102875,111.384247 
	C110.618111,112.955841 109.548141,117.146339 110.493134,118.270943 
	C111.956245,120.012123 115.429253,121.105057 117.859718,120.824471 
	C134.134567,118.945564 154.542023,105.634453 152.001511,82.647217 
M226.011398,121.003838 
	C226.755127,121.868698 227.393860,122.859695 228.258499,123.579269 
	C239.140625,132.635696 252.034821,131.883423 264.782623,130.453461 
	C277.504456,129.026428 288.699585,123.014946 299.781464,117.008080 
	C304.179962,114.623894 308.623016,114.590935 313.457428,115.693611 
	C321.049133,117.425179 328.723602,119.374443 336.445007,119.824417 
	C348.904175,120.550507 360.573029,116.500084 371.130463,110.244225 
	C389.761780,99.204155 407.959961,87.435349 426.460327,76.170059 
	C429.498779,74.319885 433.529938,71.817871 436.458038,72.477379 
	C447.145782,74.884605 453.445709,89.286179 449.162842,99.550179 
	C448.514282,101.104439 448.276642,102.830162 447.727966,104.942162 
	C461.326447,105.471733 472.744232,101.616035 482.406555,93.020355 
	C487.269470,88.694275 487.357208,84.546112 482.937103,79.523361 
	C475.180725,70.709465 466.055206,63.657684 455.304596,58.766506 
	C449.779083,56.252552 444.235657,56.098495 438.846649,58.715267 
	C431.459625,62.302227 424.136017,66.046036 416.962646,70.041214 
	C401.597076,78.599014 386.253174,87.204597 371.094452,96.120506 
	C365.438507,99.447151 360.323700,103.693726 354.400787,107.921524 
	C353.312866,101.101158 354.934052,95.928108 358.019012,91.275696 
	C364.719208,81.171432 365.747467,69.878769 364.891174,58.332539 
	C364.421844,52.004139 360.014893,48.339401 353.373962,50.805775 
	C348.056610,52.780598 344.777069,56.444218 342.042572,60.928699 
	C339.049133,65.837906 334.757507,67.986412 329.069183,68.053612 
	C325.151855,68.099884 321.047668,68.029053 317.363068,69.132584 
	C306.344543,72.432640 302.718231,75.400566 301.116730,84.665062 
	C300.167664,90.155243 300.396637,95.842896 299.979980,101.433113 
	C299.599518,106.537445 298.835266,111.382439 293.563110,114.202644 
	C278.173340,122.434998 262.441864,123.337807 246.170441,117.088509 
	C239.271454,114.438850 237.860779,109.119019 241.451675,103.311630 
	C246.139023,95.730972 252.073120,88.904655 257.646301,81.893272 
	C262.530731,75.748375 267.964264,70.014214 272.500397,63.633102 
	C273.966248,61.571056 274.405304,57.542656 273.367645,55.324162 
	C272.520233,53.512386 268.822998,52.307987 266.305756,52.147953 
	C260.351776,51.769417 255.398331,54.675671 251.002396,58.486778 
	C239.964935,68.055885 233.393433,80.614845 228.172668,93.856552 
	C224.864594,102.247002 223.677353,111.164322 226.011398,121.003838 
M624.769836,69.713707 
	C624.838684,65.563118 625.655762,61.258507 624.838928,57.290218 
	C622.178406,44.365093 619.018433,31.538488 615.817871,18.732128 
	C615.105896,15.883126 613.248413,13.410890 609.733459,15.757394 
	C604.376343,19.333677 597.986755,22.146971 594.078125,26.947374 
	C585.721924,37.210094 578.078125,48.181488 571.276917,59.541748 
	C565.661499,68.921310 561.098755,79.029976 561.863037,90.673515 
	C562.089600,94.124908 563.680176,95.509995 566.382507,95.895821 
	C569.152466,96.291306 572.119446,96.429321 574.837158,95.877190 
	C588.137329,93.175102 600.893433,88.840149 612.680603,81.999855 
	C617.538940,79.180443 622.566528,76.389496 624.769836,69.713707 
M544.942200,67.881149 
	C540.291748,57.260761 535.864868,46.533966 530.886597,36.069553 
	C528.733398,31.543459 525.441895,27.558907 522.550049,23.149319 
	C512.785339,32.371651 505.496796,51.759159 508.983734,56.525768 
	C510.764435,55.351898 512.522644,54.192863 514.280823,53.033836 
	C515.519653,55.413094 517.567688,57.706825 517.830078,60.189278 
	C518.388794,65.475838 517.888184,70.864685 518.061218,76.203857 
	C518.360474,85.438713 513.429749,91.460907 506.341461,96.425957 
	C503.813446,98.196709 501.716949,100.583450 499.423462,102.689018 
	C499.606506,103.225372 499.789581,103.761734 499.972626,104.298096 
	C501.768188,104.500809 503.659058,105.166725 505.341736,104.820648 
	C510.703094,103.718010 516.040833,102.418922 521.284729,100.851357 
	C525.897461,99.472473 530.629028,98.119705 534.855957,95.895836 
	C545.140991,90.484657 548.153625,81.862175 544.942200,67.881149 
M177.516464,141.012604 
	C183.616913,145.982300 188.000534,146.410004 193.216736,142.187149 
	C197.995941,138.318054 200.408951,133.002243 200.948120,127.007233 
	C201.783646,117.716782 199.414795,108.688698 195.487793,100.632172 
	C191.139343,91.711098 187.959457,90.498314 180.187897,95.544380 
	C173.291229,100.022369 169.466202,107.105911 169.033875,115.533272 
	C168.558670,124.796654 171.468765,133.078033 177.516464,141.012604 
M204.962677,61.453735 
	C202.948288,60.129868 201.046753,58.568150 198.889786,57.544827 
	C196.423965,56.374989 192.768707,59.426937 193.081085,62.150654 
	C193.761627,68.084221 200.501297,75.247467 206.437119,75.860046 
	C207.981339,76.019409 210.416824,75.241318 211.093674,74.096245 
	C211.883148,72.760620 211.804474,70.206558 211.010727,68.795219 
	C209.596436,66.280533 207.361603,64.227318 204.962677,61.453735 
z"/>
<path fill="#FDFDFD" opacity="1.000000" stroke="none" 
	d="
M125.107941,201.003189 
	C107.744431,203.763229 91.052597,208.507996 71.747475,206.924484 
	C73.604149,204.330612 74.436127,201.846298 76.048119,201.138535 
	C84.283493,197.522781 92.528549,193.712158 101.128120,191.189972 
	C116.903374,186.563187 132.850769,182.451385 148.870544,178.748489 
	C168.710999,174.162460 188.640381,169.910751 208.637177,166.064804 
	C231.118317,161.741058 253.695312,157.899490 276.272064,154.093964 
	C295.365173,150.875656 314.505066,147.926819 333.647125,145.008911 
	C351.834869,142.236496 370.027344,139.471024 388.263916,137.050247 
	C405.266510,134.793274 422.330597,133.000366 439.366211,130.991302 
	C456.241119,129.001160 473.104675,126.910530 489.990967,125.022514 
	C505.933990,123.239960 521.892944,121.591507 537.858337,120.020973 
	C549.291077,118.896324 560.737976,117.893051 572.192932,117.024147 
	C586.802246,115.915985 601.420593,114.897552 616.049194,114.099884 
	C618.392334,113.972122 620.809204,115.198494 623.192017,115.798866 
	C623.228760,116.579979 623.265503,117.361099 623.302307,118.142212 
	C617.694275,119.428459 612.128174,120.950470 606.470398,121.957001 
	C589.065674,125.053345 571.641296,128.046143 554.194824,130.897812 
	C540.871277,133.075623 527.487610,134.884521 514.158630,137.030823 
	C502.770203,138.864639 491.442017,141.074387 480.049866,142.882935 
	C466.380005,145.053101 452.649048,146.840454 438.984009,149.038925 
	C423.762726,151.487793 408.596252,154.275345 393.386139,156.796387 
	C382.316681,158.631119 371.205841,160.215286 360.130310,162.014633 
	C346.509552,164.227509 332.917297,166.616348 319.292145,168.800797 
	C307.880737,170.630325 296.423218,172.173889 285.016296,174.029678 
	C272.676178,176.037308 260.373474,178.274307 248.049881,180.384796 
	C237.008713,182.275665 225.956985,184.105209 214.917892,186.007980 
	C202.124695,188.213058 189.347229,190.509827 176.549744,192.689484 
	C165.815125,194.517776 155.063095,196.244293 144.315826,197.997772 
	C138.065033,199.017609 131.808456,200.001770 125.107941,201.003189 
z"/>
<path fill="#FDFDFD" opacity="1.000000" stroke="none" 
	d="
M152.001541,83.121780 
	C154.542023,105.634453 134.134567,118.945564 117.859718,120.824471 
	C115.429253,121.105057 111.956245,120.012123 110.493134,118.270943 
	C109.548141,117.146339 110.618111,112.955841 112.102875,111.384247 
	C122.002876,100.905289 119.157158,88.484009 117.637169,76.430931 
	C116.857986,70.252213 114.581581,64.267982 113.064751,58.175209 
	C111.043839,50.057659 105.648170,45.730259 97.572289,45.123089 
	C93.211899,44.795258 88.762726,45.549519 84.360771,45.904549 
	C80.829170,46.189384 80.525223,48.320992 81.548630,51.131325 
	C84.736191,59.884556 87.317085,68.921501 91.259384,77.319778 
	C95.357536,86.050072 94.155853,94.001450 90.345970,102.088470 
	C83.686272,116.224678 76.944710,130.322479 70.200958,144.418900 
	C58.149708,169.609543 46.137192,194.819077 33.974529,219.955902 
	C28.486580,231.297928 22.728848,242.511093 16.951670,253.709549 
	C16.175196,255.214645 14.564812,256.289551 13.340573,257.563660 
	C12.833007,257.272308 12.325440,256.980957 11.817874,256.689575 
	C12.940146,252.282974 13.806863,247.792252 15.225130,243.483047 
	C26.575691,208.995956 38.237263,174.609879 49.385601,140.058014 
	C57.739254,114.167679 65.622627,88.121483 73.322319,62.028694 
	C74.478050,58.112133 73.483215,53.560966 73.483215,48.869347 
	C65.708824,51.594463 62.452236,58.082878 57.235790,62.249031 
	C54.047527,64.795357 50.790421,67.452133 47.146091,69.174629 
	C43.608517,70.846657 40.971115,68.804672 40.024769,65.080864 
	C37.051094,53.379662 41.967697,42.683804 53.088306,34.929684 
	C61.880219,28.799303 71.112190,26.503267 81.669098,28.938841 
	C91.578011,31.224916 101.942299,32.003593 111.503479,35.231094 
	C130.033264,41.486061 143.936829,53.348885 150.122665,72.664505 
	C151.147461,75.864449 151.394867,79.313354 152.001541,83.121780 
z"/>
<path fill="#FDFDFD" opacity="1.000000" stroke="none" 
	d="
M225.883224,120.608467 
	C223.677353,111.164322 224.864594,102.247002 228.172668,93.856552 
	C233.393433,80.614845 239.964935,68.055885 251.002396,58.486778 
	C255.398331,54.675671 260.351776,51.769417 266.305756,52.147953 
	C268.822998,52.307987 272.520233,53.512386 273.367645,55.324162 
	C274.405304,57.542656 273.966248,61.571056 272.500397,63.633102 
	C267.964264,70.014214 262.530731,75.748375 257.646301,81.893272 
	C252.073120,88.904655 246.139023,95.730972 241.451675,103.311630 
	C237.860779,109.119019 239.271454,114.438850 246.170441,117.088509 
	C262.441864,123.337807 278.173340,122.434998 293.563110,114.202644 
	C298.835266,111.382439 299.599518,106.537445 299.979980,101.433113 
	C300.396637,95.842896 300.167664,90.155243 301.116730,84.665062 
	C302.718231,75.400566 306.344543,72.432640 317.363068,69.132584 
	C321.047668,68.029053 325.151855,68.099884 329.069183,68.053612 
	C334.757507,67.986412 339.049133,65.837906 342.042572,60.928699 
	C344.777069,56.444218 348.056610,52.780598 353.373962,50.805775 
	C360.014893,48.339401 364.421844,52.004139 364.891174,58.332539 
	C365.747467,69.878769 364.719208,81.171432 358.019012,91.275696 
	C354.934052,95.928108 353.312866,101.101158 354.400787,107.921524 
	C360.323700,103.693726 365.438507,99.447151 371.094452,96.120506 
	C386.253174,87.204597 401.597076,78.599014 416.962646,70.041214 
	C424.136017,66.046036 431.459625,62.302227 438.846649,58.715267 
	C444.235657,56.098495 449.779083,56.252552 455.304596,58.766506 
	C466.055206,63.657684 475.180725,70.709465 482.937103,79.523361 
	C487.357208,84.546112 487.269470,88.694275 482.406555,93.020355 
	C472.744232,101.616035 461.326447,105.471733 447.727966,104.942162 
	C448.276642,102.830162 448.514282,101.104439 449.162842,99.550179 
	C453.445709,89.286179 447.145782,74.884605 436.458038,72.477379 
	C433.529938,71.817871 429.498779,74.319885 426.460327,76.170059 
	C407.959961,87.435349 389.761780,99.204155 371.130463,110.244225 
	C360.573029,116.500084 348.904175,120.550507 336.445007,119.824417 
	C328.723602,119.374443 321.049133,117.425179 313.457428,115.693611 
	C308.623016,114.590935 304.179962,114.623894 299.781464,117.008080 
	C288.699585,123.014946 277.504456,129.026428 264.782623,130.453461 
	C252.034821,131.883423 239.140625,132.635696 228.258499,123.579269 
	C227.393860,122.859695 226.755127,121.868698 225.883224,120.608467 
M346.998627,93.650131 
	C345.964752,89.634239 345.356934,85.440063 343.772827,81.654411 
	C342.295624,78.124207 336.187531,76.650658 333.094513,78.420288 
	C329.544342,80.451477 328.022766,85.205070 330.042480,89.011795 
	C332.073273,92.839333 334.041107,96.841660 336.835114,100.077988 
	C339.059692,102.654755 340.806976,106.923759 345.834015,105.812637 
	C346.227448,102.011978 346.613007,98.287498 346.998627,93.650131 
z"/>
<path fill="#FDFDFD" opacity="1.000000" stroke="none" 
	d="
M624.466248,70.009338 
	C622.566528,76.389496 617.538940,79.180443 612.680603,81.999855 
	C600.893433,88.840149 588.137329,93.175102 574.837158,95.877190 
	C572.119446,96.429321 569.152466,96.291306 566.382507,95.895821 
	C563.680176,95.509995 562.089600,94.124908 561.863037,90.673515 
	C561.098755,79.029976 565.661499,68.921310 571.276917,59.541748 
	C578.078125,48.181488 585.721924,37.210094 594.078125,26.947374 
	C597.986755,22.146971 604.376343,19.333677 609.733459,15.757394 
	C613.248413,13.410890 615.105896,15.883126 615.817871,18.732128 
	C619.018433,31.538488 622.178406,44.365093 624.838928,57.290218 
	C625.655762,61.258507 624.838684,65.563118 624.466248,70.009338 
M592.990845,65.665794 
	C590.603088,69.839088 592.399841,72.942062 595.837646,75.211052 
	C598.958984,77.271156 601.577698,75.544296 604.110291,73.452400 
	C611.742737,67.148117 609.908813,60.200005 606.954224,51.554932 
	C606.796021,51.092068 603.775024,50.788235 603.276428,51.392345 
	C599.686096,55.742496 596.403198,60.346386 592.990845,65.665794 
z"/>
<path fill="#FDFDFD" opacity="1.000000" stroke="none" 
	d="
M544.970215,68.311234 
	C548.153625,81.862175 545.140991,90.484657 534.855957,95.895836 
	C530.629028,98.119705 525.897461,99.472473 521.284729,100.851357 
	C516.040833,102.418922 510.703094,103.718010 505.341736,104.820648 
	C503.659058,105.166725 501.768188,104.500809 499.972626,104.298096 
	C499.789581,103.761734 499.606506,103.225372 499.423462,102.689018 
	C501.716949,100.583450 503.813446,98.196709 506.341461,96.425957 
	C513.429749,91.460907 518.360474,85.438713 518.061218,76.203857 
	C517.888184,70.864685 518.388794,65.475838 517.830078,60.189278 
	C517.567688,57.706825 515.519653,55.413094 514.280823,53.033836 
	C512.522644,54.192863 510.764435,55.351898 508.983734,56.525768 
	C505.496796,51.759159 512.785339,32.371651 522.550049,23.149319 
	C525.441895,27.558907 528.733398,31.543459 530.886597,36.069553 
	C535.864868,46.533966 540.291748,57.260761 544.970215,68.311234 
z"/>
<path fill="#FDFDFD" opacity="1.000000" stroke="none" 
	d="
M177.252930,140.745605 
	C171.468765,133.078033 168.558670,124.796654 169.033875,115.533272 
	C169.466202,107.105911 173.291229,100.022369 180.187897,95.544380 
	C187.959457,90.498314 191.139343,91.711098 195.487793,100.632172 
	C199.414795,108.688698 201.783646,117.716782 200.948120,127.007233 
	C200.408951,133.002243 197.995941,138.318054 193.216736,142.187149 
	C188.000534,146.410004 183.616913,145.982300 177.252930,140.745605 
z"/>
<path fill="#FCFCFC" opacity="1.000000" stroke="none" 
	d="
M205.216309,61.717426 
	C207.361603,64.227318 209.596436,66.280533 211.010727,68.795219 
	C211.804474,70.206558 211.883148,72.760620 211.093674,74.096245 
	C210.416824,75.241318 207.981339,76.019409 206.437119,75.860046 
	C200.501297,75.247467 193.761627,68.084221 193.081085,62.150654 
	C192.768707,59.426937 196.423965,56.374989 198.889786,57.544827 
	C201.046753,58.568150 202.948288,60.129868 205.216309,61.717426 
z"/>
<path fill="#000000" opacity="1.000000" stroke="none" 
	d="
M346.998596,94.106575 
	C346.613007,98.287498 346.227448,102.011978 345.834015,105.812637 
	C340.806976,106.923759 339.059692,102.654755 336.835114,100.077988 
	C334.041107,96.841660 332.073273,92.839333 330.042480,89.011795 
	C328.022766,85.205070 329.544342,80.451477 333.094513,78.420288 
	C336.187531,76.650658 342.295624,78.124207 343.772827,81.654411 
	C345.356934,85.440063 345.964752,89.634239 346.998596,94.106575 
z"/>
<path fill="#000000" opacity="1.000000" stroke="none" 
	d="
M593.006836,65.267792 
	C596.403198,60.346386 599.686096,55.742496 603.276428,51.392345 
	C603.775024,50.788235 606.796021,51.092068 606.954224,51.554932 
	C609.908813,60.200005 611.742737,67.148117 604.110291,73.452400 
	C601.577698,75.544296 598.958984,77.271156 595.837646,75.211052 
	C592.399841,72.942062 590.603088,69.839088 593.006836,65.267792 
z"/>
</svg>